<?xml version="1.0" standalone="no"?>
<!DOCTYPE svg PUBLIC "-//W3C//DTD SVG 20010904//EN"
 "http://www.w3.org/TR/2001/REC-SVG-20010904/DTD/svg10.dtd">
<svg version="1.0" xmlns="http://www.w3.org/2000/svg"
 width="5364.000000pt" height="4659.000000pt" viewBox="0 0 5364.000000 4659.000000"
 preserveAspectRatio="xMidYMid meet">

<g transform="translate(0.000000,4659.000000) scale(0.100000,-0.100000)"
fill="#000000" stroke="none">
<path d="M31355 41703 c-97 -14 -308 -68 -362 -93 -36 -17 -69 -30 -75 -30 -6
0 -32 -13 -57 -28 -25 -16 -67 -41 -93 -56 -27 -15 -48 -31 -48 -36 0 -5 -10
-12 -22 -16 -23 -7 -248 -229 -248 -244 0 -5 -13 -24 -28 -42 -16 -18 -43 -58
-61 -88 -17 -30 -36 -62 -41 -70 -43 -73 -147 -335 -165 -419 -7 -31 -22 -92
-34 -136 -29 -108 -70 -427 -78 -608 l-6 -147 244 2 244 3 7 135 c4 74 15 185
23 245 9 61 21 142 26 180 18 129 95 371 156 490 42 82 116 179 196 258 49 48
94 87 100 87 6 0 27 11 46 24 47 33 156 71 260 92 67 13 120 15 260 12 164 -5
183 -7 276 -38 151 -49 272 -131 367 -250 48 -60 112 -165 123 -202 4 -12 18
-44 31 -70 22 -43 33 -79 85 -273 11 -38 24 -106 29 -150 5 -44 16 -132 24
-195 8 -63 17 -168 21 -232 l7 -118 239 0 c200 0 241 2 245 14 7 19 -12 301
-32 471 -33 284 -104 553 -200 751 -19 39 -34 74 -34 78 0 4 -16 31 -35 60
-19 29 -35 56 -35 61 0 20 -163 207 -231 266 -78 66 -146 119 -154 119 -3 0
-31 15 -63 32 -128 73 -311 130 -507 158 -68 9 -339 11 -400 3z"/>
<path d="M22221 39659 c-24 -5 -83 -27 -129 -50 -66 -32 -102 -59 -161 -118
-101 -102 -147 -191 -163 -318 -27 -219 34 -394 184 -530 109 -100 203 -138
363 -149 305 -21 575 200 614 501 30 225 -49 413 -234 563 -36 30 -145 79
-215 98 -59 15 -189 17 -259 3z"/>
<path d="M31415 38965 c-58 -14 -106 -37 -124 -59 -8 -9 -18 -16 -25 -16 -20
0 -104 -103 -135 -166 -41 -84 -56 -174 -42 -259 13 -87 67 -197 125 -257 l46
-47 0 -336 0 -335 285 0 285 0 0 337 0 336 49 57 c27 30 64 87 82 125 32 66
33 76 34 180 0 107 -1 112 -39 192 -21 45 -49 90 -61 101 -13 11 -27 26 -31
34 -12 17 -70 60 -113 82 -85 44 -229 58 -336 31z"/>
<path d="M39037 38218 c-4 -55 -17 -128 -32 -178 -15 -47 -30 -102 -36 -123
-5 -20 -25 -71 -44 -113 -19 -41 -35 -78 -35 -82 0 -6 -9 -21 -95 -152 -90
-136 -257 -281 -377 -326 -149 -55 -201 -66 -336 -67 l-133 0 6 -26 c4 -14 13
-60 20 -101 8 -41 23 -109 35 -150 11 -41 25 -97 31 -125 15 -72 131 -473 171
-590 11 -33 30 -94 43 -135 12 -41 30 -93 40 -115 10 -22 24 -62 32 -90 8 -27
23 -68 33 -90 20 -47 25 -59 56 -140 33 -87 72 -183 99 -240 13 -27 40 -86 60
-130 20 -44 49 -102 63 -130 14 -27 32 -63 39 -80 8 -16 19 -39 25 -50 6 -11
26 -47 43 -80 33 -60 85 -149 114 -194 9 -13 23 -35 31 -50 8 -15 40 -62 70
-105 30 -43 62 -88 70 -100 8 -11 28 -37 45 -57 16 -20 39 -47 49 -60 67 -83
165 -185 259 -266 59 -51 111 -93 116 -93 4 0 16 -8 27 -18 35 -32 165 -101
263 -140 189 -76 410 -95 621 -54 113 22 271 78 332 118 21 13 41 24 46 24 5
0 34 18 66 40 31 22 60 40 63 40 3 0 23 15 44 33 20 17 56 48 80 67 73 61 238
234 307 322 61 79 75 98 159 223 99 147 123 188 232 390 47 87 50 93 104 205
80 167 205 467 260 625 13 39 32 93 42 120 64 181 85 243 85 254 0 7 15 59 34
114 18 56 40 129 48 162 8 33 24 94 36 135 49 175 93 352 106 424 l13 76 -41
0 c-49 0 -250 34 -288 49 -299 115 -448 286 -569 651 -38 117 -69 301 -69 414
l0 56 -1228 0 -1229 0 -6 -92z m2171 -495 c3 -99 38 -265 72 -347 17 -39 30
-74 30 -79 0 -22 97 -171 139 -214 55 -56 147 -123 168 -123 8 0 27 -6 41 -14
60 -32 121 -48 204 -53 l88 -6 0 -31 c0 -17 -10 -65 -21 -106 -11 -41 -28
-104 -36 -140 -44 -191 -222 -744 -277 -865 -8 -16 -17 -41 -21 -55 -4 -14
-23 -58 -41 -98 -19 -40 -34 -75 -34 -79 0 -12 -145 -300 -177 -350 -18 -29
-33 -55 -33 -58 0 -4 -30 -53 -67 -108 -38 -56 -70 -107 -73 -114 -22 -51
-256 -308 -343 -376 -16 -12 -50 -39 -75 -59 -26 -21 -50 -38 -54 -38 -4 0
-31 -14 -59 -31 -52 -30 -143 -68 -228 -94 -64 -20 -243 -29 -338 -16 -90 11
-268 76 -324 117 -18 13 -37 24 -42 24 -13 0 -154 117 -222 185 -97 96 -189
211 -269 335 -27 41 -59 91 -72 111 -13 19 -24 40 -24 46 0 6 -8 21 -19 34
-49 63 -219 425 -296 629 -16 41 -32 79 -37 84 -4 6 -8 18 -8 28 0 10 -15 57
-33 105 -52 135 -167 512 -182 593 -4 19 -18 74 -31 121 -14 47 -30 120 -38
162 l-13 76 57 -6 c101 -10 307 40 374 91 17 12 36 25 43 27 31 11 141 131
197 214 79 119 157 338 173 488 l6 57 946 0 947 0 2 -67z"/>
<path d="M31720 33139 c-14 -4 -2890 -7 -6391 -8 -4729 -1 -6374 -4 -6400 -12
-65 -22 -174 -77 -208 -105 -110 -92 -188 -218 -210 -339 -7 -38 -11 -253 -11
-602 l0 -543 26 -6 c28 -7 17232 1 17239 8 3 3 5 174 5 381 1 241 5 377 11
377 6 0 6 7 -1 19 -6 11 -10 90 -10 186 0 183 -7 217 -67 337 -63 124 -206
240 -350 283 -41 13 -289 15 -1725 15 -1065 0 -1686 4 -1702 10 -17 6 -26 6
-26 0 0 -12 -132 -13 -145 -2 -6 5 -21 6 -35 1z m-3126 -760 c61 -41 79 -77
79 -162 0 -60 -3 -72 -30 -105 -62 -77 68 -71 -1506 -72 -1533 0 -1433 -4
-1495 53 -36 33 -55 114 -41 173 17 69 23 78 75 113 l47 31 1412 0 1412 0 47
-31z"/>
<path d="M18089 29743 c-15 -4 -17 -106 -24 -1186 -3 -650 -5 -1261 -3 -1357
l3 -175 148 -3 148 -3 16 -34 c16 -33 16 -37 0 -70 l-17 -35 -153 0 -154 0 4
-27 c1 -16 4 -193 5 -395 2 -201 7 -370 11 -375 13 -12 328 -9 352 4 36 20 49
92 35 195 -8 59 -11 191 -9 386 2 261 1 303 -15 346 -10 31 -14 61 -10 79 3
17 1 85 -5 151 -6 67 -16 216 -22 331 -10 208 -47 564 -74 722 -25 143 -39
514 -26 665 16 184 30 230 101 317 32 39 62 81 66 94 15 43 23 -51 25 -293 2
-216 3 -203 11 165 4 220 5 423 2 450 l-5 50 -197 1 c-108 1 -204 0 -213 -3z"/>
<path d="M40233 28853 c-166 -227 -232 -423 -220 -657 8 -145 28 -244 71 -349
108 -260 329 -465 594 -553 91 -30 208 -54 263 -54 l39 0 2 494 c3 484 3 495
-17 514 -11 10 -92 83 -180 162 -88 79 -169 153 -180 164 -12 12 -54 50 -95
86 -124 110 -161 144 -198 183 -19 20 -40 37 -47 37 -6 0 -20 -12 -32 -27z"/>
<path d="M26612 28569 c-35 -4 -100 -15 -145 -24 -45 -9 -107 -21 -137 -26
-30 -5 -84 -20 -120 -34 -36 -13 -85 -29 -110 -35 -24 -7 -70 -25 -102 -41
-32 -16 -62 -29 -69 -29 -6 0 -38 -16 -70 -35 -33 -19 -64 -35 -69 -35 -18 0
-298 -179 -319 -204 -8 -9 -19 -16 -26 -16 -6 0 -27 -14 -46 -30 -19 -17 -72
-62 -119 -101 -185 -154 -413 -399 -569 -609 -34 -47 -71 -96 -82 -110 -10
-13 -19 -29 -19 -36 0 -6 -9 -19 -20 -29 -16 -15 -34 -42 -113 -170 -6 -11
-26 -43 -44 -72 -18 -28 -33 -54 -33 -58 0 -4 -8 -19 -19 -33 -34 -48 -261
-505 -261 -526 0 -3 -18 -44 -40 -91 -22 -47 -40 -91 -40 -98 0 -7 -16 -51
-35 -97 -19 -47 -35 -92 -35 -100 0 -8 -13 -54 -29 -101 -16 -48 -33 -104 -37
-125 -3 -22 -20 -95 -36 -162 -16 -68 -33 -172 -38 -230 -6 -59 -12 -118 -15
-132 -3 -14 -18 -160 -35 -325 -26 -267 -33 -313 -65 -415 -20 -63 -49 -138
-65 -167 -17 -29 -30 -57 -30 -62 0 -12 -88 -142 -116 -170 -13 -13 -24 -28
-24 -34 0 -5 -17 -26 -37 -46 -126 -123 -309 -333 -338 -388 -13 -24 -15 -151
-15 -835 l0 -807 22 -38 c12 -21 35 -54 50 -73 15 -19 28 -38 28 -42 0 -4 15
-29 34 -55 18 -27 37 -58 40 -70 l7 -23 812 0 c632 0 818 -3 837 -13 38 -19
49 -61 23 -95 l-20 -27 -785 -5 -786 -5 23 -47 c12 -25 25 -57 28 -70 3 -12
21 -66 40 -118 35 -99 78 -268 96 -380 16 -101 31 -397 24 -482 -3 -43 -3 -78
2 -78 4 0 35 22 69 49 139 111 367 270 388 271 4 0 32 16 62 35 30 19 60 35
66 35 5 0 31 11 57 25 27 13 100 49 163 80 63 30 149 73 190 96 41 22 98 52
125 67 28 14 57 31 65 38 8 6 47 29 85 49 104 56 126 68 175 100 25 16 61 38
80 47 19 10 67 38 105 63 94 59 199 125 240 150 57 35 160 98 235 145 39 25
86 54 104 65 52 33 128 82 169 109 l37 26 0 497 0 498 -22 14 c-27 17 -135 74
-345 181 l-151 78 -23 -24 c-46 -49 -161 -58 -217 -17 -33 23 -72 97 -72 135
0 39 40 127 61 133 19 6 13 23 -41 136 -19 38 -64 128 -83 164 -28 55 -26 51
-112 230 -43 88 -81 167 -85 176 -4 8 -20 40 -35 70 -15 30 -30 61 -34 69 -5
8 -23 44 -41 80 -17 36 -43 85 -57 110 -13 25 -29 57 -34 73 -10 25 -15 27
-65 27 -83 0 -139 37 -163 109 -34 102 26 205 131 225 l36 6 22 96 c12 52 26
123 30 157 5 34 22 127 39 207 16 80 46 226 67 325 20 99 43 220 50 269 13 82
13 90 -4 102 -9 7 -20 14 -24 14 -4 0 -19 17 -33 37 -32 49 -35 141 -5 190 38
63 157 94 220 58 21 -12 219 -14 1341 -15 l1316 0 69 45 c146 94 272 195 399
320 73 72 146 148 162 169 l30 39 25 -44 c56 -96 198 -395 198 -416 0 -4 10
-31 22 -60 l22 -53 57 0 58 0 19 43 c23 50 44 71 97 92 60 26 118 13 172 -38
49 -47 60 -85 49 -161 -8 -52 -61 -111 -108 -121 l-28 -7 0 -196 c1 -375 17
-753 34 -807 9 -27 20 -77 26 -110 23 -133 53 -241 74 -265 68 -77 75 -146 24
-222 -25 -37 -41 -49 -75 -59 -37 -10 -46 -18 -63 -57 -11 -24 -20 -49 -20
-55 0 -17 -169 -349 -196 -384 -13 -17 -24 -35 -24 -40 0 -4 -25 -44 -55 -88
-52 -76 -144 -251 -160 -305 -4 -14 -15 -38 -25 -55 -9 -16 -26 -52 -35 -80
-10 -27 -23 -55 -28 -62 -6 -8 3 -27 29 -58 48 -59 57 -121 25 -182 -53 -105
-172 -131 -260 -57 l-30 25 -48 -26 c-26 -15 -74 -41 -106 -58 -32 -18 -62
-39 -67 -47 -6 -9 -10 -220 -10 -520 l0 -505 48 -22 c44 -21 80 -37 265 -113
39 -17 88 -39 108 -50 20 -11 42 -20 48 -20 6 0 44 -15 84 -34 210 -98 249
-116 254 -116 7 0 100 -43 228 -105 71 -35 95 -34 95 4 0 9 16 47 35 85 19 39
35 76 35 83 0 9 -19 13 -70 13 -67 0 -70 1 -85 30 -21 40 -19 57 10 85 22 23
32 25 118 25 l95 0 36 84 c20 47 36 91 36 99 0 8 13 52 30 98 22 64 60 212 60
237 0 1 -158 2 -351 2 -222 0 -357 4 -370 10 -13 7 -19 21 -19 43 0 65 -19 62
397 62 l378 0 8 45 c4 25 19 98 33 163 14 65 29 155 35 200 6 45 22 154 35
242 23 156 33 240 54 475 5 63 22 237 37 385 25 255 27 300 27 800 0 541 -4
630 -45 1010 -11 99 -26 243 -34 320 -8 77 -23 192 -35 255 -11 63 -25 149
-30 190 -11 82 -71 354 -102 465 -11 39 -28 99 -38 135 -25 90 -93 277 -117
325 -11 22 -24 51 -28 64 -4 13 -20 45 -35 71 -15 26 -31 57 -35 69 -3 12 -21
44 -38 71 -18 27 -40 61 -49 77 -35 56 -74 112 -115 166 -57 74 -227 245 -294
294 -30 22 -60 47 -68 56 -7 10 -19 17 -25 17 -6 0 -24 12 -41 26 -16 14 -52
37 -80 51 -27 14 -56 30 -63 36 -38 30 -408 177 -447 177 -8 0 -53 11 -100 25
-94 27 -136 34 -360 65 -281 37 -638 51 -803 29z m-2899 -4487 c15 -17 17 -98
19 -918 l3 -899 761 -3 761 -2 13 -26 c12 -22 12 -29 -2 -52 l-17 -27 -795 -3
c-785 -2 -796 -2 -816 18 -20 20 -20 32 -20 953 0 828 2 935 16 955 18 27 55
29 77 4z"/>
<path d="M18488 27668 c-1 -370 -2 -869 -2 -1108 -1 -239 2 -448 5 -465 4 -16
7 482 8 1108 1 625 -1 1137 -4 1137 -3 0 -6 -303 -7 -672z"/>
<path d="M41022 28190 c12 -16 26 -30 31 -30 5 0 25 -17 46 -37 21 -21 73 -69
115 -108 43 -38 95 -86 115 -105 21 -19 56 -51 77 -70 22 -19 84 -75 138 -125
54 -49 114 -104 134 -122 l36 -32 44 57 c24 31 51 71 59 87 9 17 22 37 30 46
7 9 23 41 34 70 52 136 69 203 75 299 l7 100 -482 0 -482 0 23 -30z"/>
<path d="M8105 26724 c-38 -36 -103 -95 -144 -132 -41 -37 -91 -83 -112 -102
-20 -19 -70 -64 -110 -100 -97 -87 -114 -103 -208 -189 l-81 -75 0 -492 0
-493 53 5 c112 12 262 45 321 73 33 15 68 31 77 34 67 23 247 175 330 279 35
45 109 173 109 190 0 8 4 18 9 23 4 6 20 44 34 85 36 104 53 302 37 437 -11
87 -47 209 -90 298 -17 36 -94 152 -125 189 l-30 36 -70 -66z"/>
<path d="M42530 26665 c0 -14 2 -25 4 -25 2 0 6 11 8 25 3 14 1 25 -3 25 -5 0
-9 -11 -9 -25z"/>
<path d="M40250 26640 c0 -5 -16 -27 -35 -49 -19 -21 -35 -41 -35 -44 0 -3
-15 -28 -32 -54 -79 -116 -138 -325 -138 -486 0 -122 32 -299 69 -379 17 -36
31 -70 31 -75 0 -5 16 -32 35 -62 19 -29 35 -55 35 -58 0 -24 231 -253 256
-253 6 0 21 -9 34 -20 26 -22 142 -79 210 -102 55 -19 147 -37 235 -45 l65 -6
0 496 0 495 -97 88 c-53 49 -113 105 -134 124 -20 19 -70 64 -110 100 -40 36
-102 93 -138 126 -106 99 -238 214 -245 214 -3 0 -6 -4 -6 -10z"/>
<path d="M25066 26113 c4 -10 9 -43 12 -73 2 -30 7 -58 11 -62 4 -5 34 -13 66
-18 33 -6 112 -24 175 -40 536 -134 548 -136 700 -107 257 50 321 58 570 72
177 10 296 22 360 35 52 11 117 25 144 30 125 25 445 149 446 173 0 4 -561 7
-1246 7 -1183 0 -1246 -1 -1238 -17z"/>
<path d="M6475 26063 c13 -114 46 -254 75 -318 17 -36 30 -68 30 -71 0 -9 87
-138 118 -174 l29 -34 59 54 c33 30 70 64 83 75 13 11 35 32 50 46 14 15 69
64 121 109 52 46 104 93 116 104 11 12 56 53 99 91 44 39 104 94 135 122 l55
53 -488 0 -488 0 6 -57z"/>
<path d="M28596 26106 c4 -11 13 -12 42 -4 59 15 60 16 5 17 -41 1 -51 -2 -47
-13z"/>
<path d="M28660 26063 c-19 -8 -37 -17 -39 -19 -2 -2 5 -27 16 -56 38 -103
140 -438 177 -583 44 -173 44 -173 44 -10 -1 83 -4 244 -7 359 l-6 210 -50 25
c-28 15 -59 40 -70 58 -23 37 -19 36 -65 16z"/>
<path d="M41000 25977 c0 -2 75 -71 167 -153 93 -82 184 -165 205 -184 20 -19
69 -64 110 -100 94 -84 151 -136 194 -180 34 -34 35 -35 49 -15 8 11 29 37 46
57 95 113 173 315 184 476 l8 102 -482 0 c-264 0 -481 -2 -481 -3z"/>
<path d="M25040 25920 c-13 -24 -48 -40 -104 -49 l-39 -6 -18 -75 c-10 -41
-25 -118 -34 -170 -9 -52 -31 -169 -50 -260 -52 -248 -97 -478 -107 -540 -4
-30 -10 -65 -13 -77 -4 -17 5 -29 44 -56 l48 -35 -5 69 c-5 69 -5 70 59 195
77 151 85 165 128 229 124 180 338 371 522 465 35 17 72 38 83 46 11 8 26 14
32 14 7 0 46 15 87 34 40 19 91 38 111 41 20 4 35 9 33 11 -7 7 -170 52 -212
58 -22 4 -92 20 -155 35 -190 48 -374 91 -387 91 -7 0 -17 -9 -23 -20z"/>
<path d="M25748 25545 c-53 -9 -98 -25 -142 -49 -113 -64 -149 -104 -127 -144
19 -35 49 -34 90 4 21 18 69 48 107 66 67 32 73 33 199 33 99 0 142 -4 178
-18 64 -23 84 -22 102 7 21 32 7 60 -37 75 -39 14 -219 41 -263 40 -16 -1 -65
-7 -107 -14z"/>
<path d="M27915 25553 c-70 -8 -163 -25 -198 -35 -42 -13 -56 -42 -37 -77 13
-25 33 -26 91 -5 61 22 189 33 265 24 75 -9 188 -61 222 -102 37 -43 93 -33
92 17 -1 26 -41 75 -78 94 -16 9 -48 26 -70 38 -36 20 -202 55 -242 51 -8 0
-28 -3 -45 -5z"/>
<path d="M18150 25251 l-75 -6 -3 -912 -2 -913 165 0 c182 0 202 5 225 60 19
46 5 76 -74 159 -101 106 -106 123 -106 376 1 110 -3 250 -8 310 -12 139 3
480 24 553 12 44 30 70 95 138 43 47 79 90 79 96 0 6 3 8 7 4 4 -4 10 -68 13
-144 6 -129 7 -124 7 78 1 175 -1 208 -11 179 -10 -34 -36 -44 -36 -14 0 32
-143 50 -300 36z"/>
<path d="M25830 24948 c-102 -29 -156 -137 -116 -232 35 -83 100 -123 182
-110 107 16 171 132 133 242 -11 33 -92 102 -120 102 -9 0 -23 2 -31 4 -7 2
-29 0 -48 -6z"/>
<path d="M27830 24928 c-19 -13 -45 -39 -58 -58 -21 -30 -23 -44 -20 -104 4
-66 5 -69 50 -112 45 -42 49 -44 108 -44 68 0 91 9 126 49 33 37 47 85 42 143
-9 86 -65 139 -155 146 -49 3 -64 0 -93 -20z"/>
<path d="M26813 24645 c0 -44 2 -61 4 -37 2 23 2 59 0 80 -2 20 -4 1 -4 -43z"/>
<path d="M26871 24540 c-1 -141 2 -183 16 -220 19 -52 80 -130 117 -149 33
-18 44 -51 21 -67 -16 -12 -16 -14 0 -38 21 -31 38 -33 65 -6 13 13 20 33 20
61 0 37 -6 46 -52 90 -29 27 -56 49 -61 49 -10 0 -70 133 -86 190 -6 25 -18
95 -25 155 l-14 110 -1 -175z"/>
<path d="M24771 24493 c-8 -20 -24 -47 -37 -60 l-24 -24 49 -99 c27 -54 56
-109 66 -122 16 -22 16 -21 10 42 -7 73 -42 291 -48 296 -2 2 -9 -13 -16 -33z"/>
<path d="M18487 23665 c-3 -112 -2 -217 3 -232 5 -17 9 62 9 205 1 127 -1 232
-2 232 -2 0 -7 -92 -10 -205z"/>
<path d="M25121 23575 c2 -6 35 -72 72 -147 l68 -138 50 0 50 0 -78 91 c-43
49 -85 100 -93 112 -19 29 -74 94 -69 82z"/>
<path d="M28389 23378 c-11 -22 -50 -70 -103 -128 -52 -58 -52 -60 -9 -60 37
0 40 3 62 48 46 91 89 214 50 140z"/>
<path d="M22933 23327 c-13 -18 -23 -38 -23 -44 0 -6 -11 -31 -25 -55 -37 -67
-93 -250 -106 -348 -16 -117 -5 -268 27 -377 15 -49 30 -102 34 -119 7 -28 40
-105 94 -212 l21 -42 3 304 c1 168 1 444 0 615 l-3 310 -22 -32z"/>
<path d="M25485 23110 l0 -49 55 -28 c30 -16 64 -34 75 -40 36 -20 124 -63
131 -63 4 0 -6 10 -22 22 -16 12 -67 56 -114 97 -47 41 -94 83 -105 92 -20 17
-20 17 -20 -31z"/>
<path d="M27995 22944 c-99 -93 -121 -127 -51 -79 21 14 64 39 96 55 32 16 60
33 62 37 2 5 1 24 -2 44 l-5 36 -100 -93z"/>
<path d="M24260 16940 c0 -92 -15 -273 -49 -620 -5 -52 -12 -142 -16 -200 -3
-58 -12 -168 -21 -245 -8 -77 -21 -193 -28 -258 -7 -64 -10 -120 -7 -122 2 -3
98 -5 213 -5 l208 0 0 28 c0 65 -30 347 -49 457 -11 66 -27 167 -35 225 -8 58
-26 152 -39 210 -14 58 -28 125 -32 150 -4 25 -22 97 -40 160 -18 63 -36 129
-39 147 -4 17 -20 65 -36 105 l-29 73 -1 -105z"/>
<path d="M8405 15858 c-79 -71 -220 -200 -338 -308 -21 -19 -55 -51 -75 -70
-21 -19 -69 -63 -107 -97 -39 -34 -79 -70 -90 -80 -20 -18 -20 -29 -17 -510
l2 -493 28 0 c44 0 228 29 259 41 56 21 175 77 230 108 64 36 263 223 263 248
0 5 9 19 21 31 55 60 127 246 160 415 46 239 -47 566 -218 764 l-28 32 -90
-81z"/>
<path d="M11973 15927 c-4 -8 -55 -56 -113 -107 -58 -51 -128 -114 -155 -139
-28 -25 -97 -89 -155 -141 -118 -107 -150 -137 -234 -215 l-60 -55 -486 0
-487 0 4 -57 c11 -152 93 -390 167 -485 12 -15 35 -45 51 -67 17 -22 32 -40
35 -40 3 -1 28 21 57 47 49 45 143 130 282 256 142 128 266 242 296 271 16 16
45 40 63 52 l32 22 0 -484 0 -485 33 0 c137 1 337 58 443 127 28 18 54 33 59
33 11 0 126 94 166 137 20 21 56 65 81 98 39 54 59 86 111 190 17 35 50 146
66 224 19 93 24 223 12 297 -13 73 -56 227 -72 257 -5 10 -24 46 -41 80 -31
60 -103 162 -132 186 -11 10 -16 9 -23 -2z"/>
<path d="M42582 15823 l3 -98 1978 -3 1977 -2 0 100 0 100 -1980 0 -1981 0 3
-97z"/>
<path d="M40235 15844 c-9 -14 -23 -33 -32 -42 -25 -28 -90 -135 -98 -162 -4
-14 -13 -34 -19 -45 -97 -162 -97 -557 0 -759 13 -27 24 -54 24 -60 0 -24 102
-168 178 -250 33 -35 156 -136 166 -136 4 0 31 -16 60 -35 29 -19 57 -35 62
-35 5 0 52 -16 104 -36 80 -31 111 -37 197 -42 l103 -5 2 490 3 490 -159 144
c-87 79 -178 162 -202 184 -23 22 -80 74 -125 115 -100 91 -143 130 -189 176
-43 41 -52 42 -75 8z"/>
<path d="M42580 15210 l0 -100 1980 0 1980 0 0 100 0 100 -1980 0 -1980 0 0
-100z"/>
<path d="M6790 15233 c0 -91 50 -287 93 -368 12 -22 30 -58 41 -80 11 -22 26
-46 34 -54 8 -8 24 -30 37 -50 12 -20 30 -42 39 -50 14 -12 19 -10 37 13 11
14 25 26 32 26 6 0 25 15 42 33 17 17 66 64 109 102 44 39 93 84 110 101 17
17 76 71 131 120 55 49 113 103 130 119 17 17 55 51 85 78 l55 47 -488 0 -487
0 0 -37z"/>
<path d="M41012 15192 c7 -10 56 -56 108 -101 52 -46 109 -96 125 -112 30 -30
56 -53 184 -169 39 -36 88 -81 109 -100 20 -19 68 -63 107 -98 l69 -62 14 25
c7 14 16 25 20 25 6 0 32 36 98 140 61 95 112 286 114 423 l0 47 -481 0 c-464
0 -480 -1 -467 -18z"/>
<path d="M42582 14603 l3 -98 1978 -3 1977 -2 0 100 0 100 -1980 0 -1981 0 3
-97z"/>
<path d="M43460 13000 l0 -570 570 0 570 0 0 570 0 570 -570 0 -570 0 0 -570z"/>
<path d="M44980 13000 l0 -570 570 0 570 0 0 570 0 570 -570 0 -570 0 0 -570z"/>
<path d="M9846 13505 c9 -22 -43 -40 -171 -60 -145 -23 -214 -45 -273 -89 -57
-41 -75 -66 -93 -124 -18 -62 6 -116 86 -190 125 -118 296 -215 495 -282 137
-46 165 -58 140 -61 -8 -1 10 -5 40 -9 30 -5 688 -8 1463 -9 l1407 -1 0 420 0
420 -1550 0 c-1376 0 -1549 -2 -1544 -15z"/>
<path d="M23675 13499 c-82 -24 -168 -107 -180 -172 -3 -18 -4 -631 -3 -1362
l3 -1331 31 -42 c18 -24 53 -57 80 -75 l49 -32 3320 0 3321 0 48 35 c27 19 62
55 80 78 l31 44 3 1316 c2 904 -1 1333 -8 1368 -14 65 -62 123 -132 158 l-52
26 -3280 -1 c-1893 0 -3294 -4 -3311 -10z m1485 -440 c120 -64 130 -99 130
-449 0 -309 6 -291 -95 -284 -78 6 -79 6 -98 47 -14 29 -17 72 -17 266 l0 232
-25 24 c-29 30 -68 32 -112 5 l-33 -20 0 -107 c0 -60 5 -137 10 -173 18 -114
70 -309 101 -377 16 -35 29 -73 29 -82 0 -9 4 -21 9 -26 6 -6 24 -46 42 -90
17 -44 44 -108 60 -142 16 -34 29 -68 29 -75 0 -7 9 -36 20 -65 74 -196 105
-609 53 -708 -11 -22 -39 -55 -62 -73 -64 -51 -116 -65 -230 -60 -90 3 -102 6
-155 38 -48 29 -62 45 -87 95 l-29 60 0 282 0 283 25 6 c14 4 51 4 82 2 46 -4
61 -10 80 -32 23 -27 23 -30 23 -270 0 -240 0 -243 23 -264 38 -36 78 -38 116
-6 l34 28 -5 120 c-12 278 -66 490 -200 786 -17 36 -40 94 -53 130 -13 36 -31
85 -40 110 -41 107 -77 312 -82 466 -5 135 -4 155 14 195 22 49 69 109 86 109
6 0 18 6 26 14 32 28 113 46 193 42 63 -3 88 -10 138 -37z m1296 25 c76 -24
126 -63 159 -124 l30 -55 3 -393 3 -392 -26 -10 c-54 -21 -156 -4 -172 28 -4
9 -10 178 -13 374 -5 354 -5 358 -28 380 -33 34 -97 31 -128 -5 l-24 -28 0
-854 c0 -519 4 -864 10 -879 5 -14 23 -32 40 -41 44 -23 86 -11 111 28 18 30
19 54 19 368 l0 336 25 23 c21 20 39 25 93 28 52 3 71 0 80 -11 10 -12 12
-102 10 -394 -3 -366 -4 -379 -25 -423 -24 -50 -82 -102 -140 -126 -48 -21
-236 -16 -274 6 -78 46 -100 65 -126 113 l-28 52 0 915 0 915 32 55 c27 47 42
60 95 87 35 17 70 34 78 36 33 12 151 6 196 -9z m1332 -26 c12 -16 20 -82 32
-278 5 -85 21 -263 34 -395 14 -132 28 -285 31 -340 4 -55 19 -235 35 -400 17
-165 34 -373 40 -463 6 -89 13 -178 16 -198 8 -53 -7 -64 -86 -64 -65 0 -69 2
-98 34 -30 34 -30 36 -37 185 l-8 151 -72 0 -72 0 -7 -152 -7 -153 -32 -32
c-29 -31 -35 -33 -99 -33 -54 0 -69 3 -76 18 -12 22 0 206 37 584 16 167 32
348 36 403 3 55 21 255 39 445 19 190 39 417 45 504 7 87 16 167 22 177 8 17
23 19 113 19 71 0 107 -4 114 -12z m1101 -12 c18 -19 26 -52 47 -192 13 -93
36 -236 50 -319 14 -82 32 -195 39 -250 8 -55 28 -163 44 -240 l30 -140 -6
561 -6 560 28 22 c25 20 39 22 104 20 l76 -3 3 -1059 c2 -816 -1 -1062 -10
-1073 -9 -11 -30 -14 -86 -11 -63 3 -77 7 -93 27 -10 13 -19 35 -19 50 0 14
-15 107 -34 206 -19 99 -50 268 -70 375 -20 107 -47 251 -60 320 l-25 125 6
-525 5 -525 -25 -27 c-24 -25 -33 -28 -96 -28 -59 0 -72 3 -81 19 -16 30 -14
2103 2 2119 7 7 41 12 83 12 62 0 74 -3 94 -24z"/>
<path d="M27662 12270 c-7 -113 -15 -223 -17 -245 -2 -22 -7 -83 -10 -135 -3
-52 -10 -158 -15 -235 -14 -207 -21 -185 55 -185 76 0 70 -20 55 180 -4 69
-12 177 -16 240 -4 63 -14 221 -23 350 l-17 235 -12 -205z"/>
<path d="M18500 5637 c0 -624 0 -620 65 -745 35 -66 109 -153 170 -200 35 -26
112 -64 176 -86 40 -14 871 -16 8224 -16 6996 0 8186 2 8220 14 187 66 308
175 377 342 l33 79 3 588 2 587 -8635 0 -8635 0 0 -563z m9477 -9 c50 -33 93
-113 93 -174 0 -78 -57 -158 -138 -194 -15 -6 -296 -10 -798 -10 l-774 0 -50
26 c-90 47 -133 164 -93 255 25 55 74 106 116 118 19 6 355 9 818 8 l785 -2
41 -27z"/>
</g>
</svg>
