<svg width="238" height="89" viewBox="0 0 238 89" fill="none" xmlns="http://www.w3.org/2000/svg">
<path d="M1.30244 69L15.6293 22.1122H28.849L43.1759 69H34.0588L21.2949 27.6476H22.9881L10.4195 69H1.30244ZM9.89854 59.2317V50.9612H34.6449V59.2317H9.89854ZM62.1014 70.042C59.3446 70.042 57.0979 69.5752 55.3613 68.6418C53.6247 67.7084 52.268 66.5254 51.2912 65.0927C50.336 63.66 49.6523 62.173 49.2398 60.6318C48.8274 59.0689 48.5778 57.6471 48.4909 56.3663C48.4041 55.0856 48.3607 54.1522 48.3607 53.5661V33.8341H57.3475V50.4402C57.3475 51.2434 57.3909 52.2745 57.4778 53.5335C57.5646 54.7709 57.8359 56.019 58.2918 57.278C58.7476 58.5371 59.4857 59.5899 60.5059 60.4365C61.5479 61.283 63.0131 61.7063 64.9017 61.7063C65.6614 61.7063 66.4754 61.587 67.3437 61.3482C68.212 61.1094 69.0261 60.6535 69.7858 59.9806C70.5456 59.286 71.1642 58.2766 71.6418 56.9524C72.1411 55.6066 72.3907 53.8483 72.3907 51.6776L77.4702 54.0871C77.4702 56.8656 76.9058 59.4705 75.777 61.9017C74.6482 64.3329 72.9442 66.2974 70.665 67.7952C68.4074 69.293 65.5529 70.042 62.1014 70.042ZM73.4978 69V57.3432H72.3907V33.8341H81.3124V69H73.4978Z" fill="black"/>
<path d="M111.512 69C109.081 69.4559 106.693 69.6512 104.349 69.5861C102.026 69.5427 99.9422 69.1411 98.0971 68.3813C96.2737 67.5999 94.8844 66.3517 93.9293 64.6368C93.061 63.0305 92.6051 61.4024 92.5617 59.7527C92.5183 58.0812 92.4966 56.1927 92.4966 54.0871V24.0658H101.353V53.5661C101.353 54.9337 101.364 56.171 101.386 57.278C101.429 58.3634 101.657 59.2317 102.07 59.8829C102.851 61.1202 104.099 61.7932 105.814 61.9017C107.529 62.0102 109.428 61.9234 111.512 61.6412V69ZM86.5054 40.6719V33.8341H111.512V40.6719H86.5054ZM143.314 69V52.3939C143.314 51.5907 143.27 50.5705 143.183 49.3332C143.097 48.0741 142.825 46.8151 142.369 45.5561C141.913 44.2971 141.165 43.2443 140.123 42.3977C139.102 41.5511 137.648 41.1278 135.759 41.1278C135 41.1278 134.186 41.2472 133.317 41.486C132.449 41.7248 131.635 42.1915 130.875 42.8861C130.116 43.559 129.486 44.5576 128.987 45.8817C128.509 47.2059 128.27 48.9641 128.27 51.1566L123.191 48.7471C123.191 45.9685 123.755 43.3637 124.884 40.9324C126.013 38.5012 127.706 36.5367 129.964 35.0389C132.243 33.5411 135.108 32.7922 138.56 32.7922C141.317 32.7922 143.563 33.2589 145.3 34.1923C147.036 35.1257 148.382 36.3088 149.337 37.7415C150.314 39.1741 151.009 40.6719 151.421 42.2349C151.834 43.7761 152.083 45.1871 152.17 46.4678C152.257 47.7485 152.3 48.6819 152.3 49.268V69H143.314ZM119.284 69V22.1122H127.163V46.2073H128.27V69H119.284ZM161.401 28.95V21.1354H170.257V28.95H161.401ZM161.401 69V33.8341H170.257V69H161.401ZM182.949 69V33.9644C182.949 33.0744 182.971 32.065 183.015 30.9362C183.058 29.8074 183.232 28.6678 183.536 27.5173C183.861 26.3668 184.447 25.3249 185.294 24.3915C186.379 23.1758 187.551 22.351 188.81 21.9168C190.091 21.461 191.328 21.2222 192.522 21.2005C193.716 21.1571 194.737 21.1354 195.583 21.1354H199.946V28.2988H195.909C194.519 28.2988 193.488 28.6569 192.815 29.3733C192.143 30.0679 191.806 30.9037 191.806 31.8805V69H182.949ZM177.414 40.6719V33.8341H199.946V40.6719H177.414ZM209.633 84.6293L216.405 66.0044L216.536 71.4746L201.232 33.8341H210.414L220.703 60.469H218.62L228.844 33.8341H237.7L217.838 84.6293H209.633Z" fill="#20D7FF"/>
</svg>
